# xmcd
#
# Track frame offsets:
#	150
#	13761
#	31948
#	50918
#	66257
#	85006
#	103631
#	118767
#	132978
#	151642
#	167912
#	182607
#	202575
#	218861
#
# Disc length: 3119 seconds
#
# Revision: 1
# Processed by: cddbd v1.4PL0 Copyright (c) Steve Scherf et al.
# Submitted via: audiograbber 1.82.01
#
DISCID=b80c2d0e
DTITLE=Howard Carpendale - präsentiert von Ilja Richter
DYEAR=1900
DGENRE=Schlager
TTITLE0=Deine Spuren im Sand
TTITLE1=Hey.versuch`s nochmal mit mir
TTITLE2=Leben mit Dir
TTITLE3=Warum Du
TTITLE4=Das nennt man Blues
TTITLE5=Mit viel viel Herz
TTITLE6=Vielleicht niemals
TTITLE7=The most beautyful girl
TTITLE8=Willkommen auf der Titanic
TTITLE9=Ohne Dich
TTITLE10=Du kommst nicht mehr wie sonst zu mir
TTITLE11=Komm wie Du bist
TTITLE12=Du bist die Antwort für mich
TTITLE13=Hello again
EXTD=
EXTT0=
EXTT1=
EXTT2=
EXTT3=
EXTT4=
EXTT5=
EXTT6=
EXTT7=
EXTT8=
EXTT9=
EXTT10=
EXTT11=
EXTT12=
EXTT13=
PLAYORDER=
